<svg xmlns="http://www.w3.org/2000/svg" xmlns:xlink="http://www.w3.org/1999/xlink" width="336" zoomAndPan="magnify" viewBox="0 0 252 36.000001" height="48" preserveAspectRatio="xMidYMid meet" version="1.0"><defs><g><g id="id1"/></g><clipPath id="id2"><path d="M 8.167969 6.640625 L 30.789062 6.640625 L 30.789062 28.53125 L 8.167969 28.53125 Z M 8.167969 6.640625 " clip-rule="nonzero"/></clipPath><clipPath id="id3"><path d="M 172 12 L 174 12 L 174 21.9375 L 172 21.9375 Z M 172 12 " clip-rule="nonzero"/></clipPath><clipPath id="id4"><path d="M 170.964844 8.800781 L 175.34375 8.800781 L 175.34375 14 L 170.964844 14 Z M 170.964844 8.800781 " clip-rule="nonzero"/></clipPath><clipPath id="id5"><path d="M 170.964844 8.800781 L 175.34375 8.800781 L 175.34375 15 L 170.964844 15 Z M 170.964844 8.800781 " clip-rule="nonzero"/></clipPath></defs><g clip-path="url(#id2)"><path fill="rgb(100%, 93.328857%, 63.919067%)" d="M 15.914062 25.78125 L 8.476562 28.121094 L 8.476562 9.296875 L 15.910156 6.957031 L 23.042969 9.390625 L 30.480469 7.050781 L 30.480469 25.875 L 23.050781 28.210938 Z M 15.914062 25.78125 " fill-opacity="1" fill-rule="nonzero"/><path fill="rgb(72.938538%, 60.778809%, 28.239441%)" d="M 15.90625 7.277344 L 22.859375 9.648438 L 23.042969 9.710938 L 23.222656 9.652344 L 30.183594 7.460938 L 30.183594 25.648438 L 23.054688 27.890625 L 16.101562 25.523438 L 15.917969 25.460938 L 15.738281 25.515625 L 8.777344 27.707031 L 8.777344 9.519531 L 15.90625 7.277344 M 30.777344 6.640625 L 23.046875 9.070312 L 15.910156 6.640625 L 8.179688 9.070312 L 8.179688 28.53125 L 15.910156 26.097656 L 23.046875 28.53125 L 30.777344 26.097656 Z M 30.777344 6.640625 " fill-opacity="1" fill-rule="nonzero"/></g><path fill="rgb(100%, 100%, 100%)" d="M 23.046875 27.921875 L 15.910156 25.492188 L 15.910156 7.246094 L 23.046875 9.679688 Z M 23.046875 27.921875 " fill-opacity="1" fill-rule="nonzero"/><path fill="rgb(96.859741%, 56.079102%, 56.079102%)" d="M 23.046875 25.628906 C 22.121094 24.492188 18.589844 19.933594 18.589844 16.367188 C 18.589844 13.855469 20.589844 11.808594 23.046875 11.808594 C 25.507812 11.808594 27.507812 13.855469 27.507812 16.367188 C 27.507812 19.964844 23.980469 24.5 23.046875 25.628906 Z M 23.046875 25.628906 " fill-opacity="1" fill-rule="nonzero"/><path fill="rgb(78.039551%, 26.269531%, 26.269531%)" d="M 23.046875 12.113281 C 25.34375 12.113281 27.210938 14.023438 27.210938 16.367188 C 27.210938 19.617188 24.203125 23.703125 23.050781 25.152344 C 21.894531 23.695312 18.886719 19.589844 18.886719 16.367188 C 18.886719 14.023438 20.753906 12.113281 23.046875 12.113281 M 23.046875 11.503906 C 20.421875 11.503906 18.289062 13.683594 18.289062 16.367188 C 18.289062 20.617188 23.046875 26.097656 23.046875 26.097656 C 23.046875 26.097656 27.804688 20.652344 27.804688 16.367188 C 27.804688 13.683594 25.675781 11.503906 23.046875 11.503906 Z M 23.046875 11.503906 " fill-opacity="1" fill-rule="nonzero"/><path fill="rgb(94.898987%, 98.039246%, 100%)" d="M 23.046875 18.496094 C 21.902344 18.496094 20.964844 17.542969 20.964844 16.367188 C 20.964844 15.195312 21.902344 14.242188 23.046875 14.242188 C 24.195312 14.242188 25.128906 15.195312 25.128906 16.367188 C 25.128906 17.542969 24.195312 18.496094 23.046875 18.496094 Z M 23.046875 18.496094 " fill-opacity="1" fill-rule="nonzero"/><path fill="rgb(78.039551%, 26.269531%, 26.269531%)" d="M 23.046875 14.542969 C 24.035156 14.542969 24.832031 15.359375 24.832031 16.367188 C 24.832031 17.375 24.035156 18.191406 23.046875 18.191406 C 22.0625 18.191406 21.265625 17.375 21.265625 16.367188 C 21.265625 15.359375 22.0625 14.542969 23.046875 14.542969 M 23.046875 13.9375 C 21.734375 13.9375 20.667969 15.027344 20.667969 16.367188 C 20.667969 17.710938 21.734375 18.800781 23.046875 18.800781 C 24.359375 18.800781 25.425781 17.710938 25.425781 16.367188 C 25.425781 15.027344 24.359375 13.9375 23.046875 13.9375 Z M 23.046875 13.9375 " fill-opacity="1" fill-rule="nonzero"/><g fill="rgb(0%, 0%, 0%)" fill-opacity="1"><g transform="translate(32.685023, 22.036174)"><g><path d="M 5.328125 -4.671875 C 5.828125 -4.671875 6.238281 -4.851562 6.5625 -5.21875 C 6.894531 -5.582031 7.0625 -6.179688 7.0625 -7.015625 C 7.0625 -7.828125 6.882812 -8.472656 6.53125 -8.953125 C 6.175781 -9.429688 5.640625 -9.671875 4.921875 -9.671875 C 4.710938 -9.671875 4.476562 -9.632812 4.21875 -9.5625 L 4.21875 -2.75 C 4.21875 -2.289062 4.265625 -1.929688 4.359375 -1.671875 C 4.460938 -1.421875 4.625 -1.238281 4.84375 -1.125 C 5.070312 -1.019531 5.390625 -0.953125 5.796875 -0.921875 C 5.867188 -0.710938 5.90625 -0.390625 5.90625 0.046875 C 5.363281 0.015625 4.507812 0 3.34375 0 C 2.132812 0 1.238281 0.015625 0.65625 0.046875 C 0.65625 -0.410156 0.6875 -0.734375 0.75 -0.921875 C 1.039062 -0.941406 1.257812 -0.992188 1.40625 -1.078125 C 1.5625 -1.171875 1.671875 -1.328125 1.734375 -1.546875 C 1.796875 -1.765625 1.828125 -2.085938 1.828125 -2.515625 L 1.828125 -8.125 C 1.828125 -8.550781 1.796875 -8.867188 1.734375 -9.078125 C 1.679688 -9.285156 1.582031 -9.429688 1.4375 -9.515625 C 1.289062 -9.609375 1.066406 -9.671875 0.765625 -9.703125 C 0.691406 -9.929688 0.65625 -10.253906 0.65625 -10.671875 C 1.570312 -10.640625 2.363281 -10.625 3.03125 -10.625 L 4.65625 -10.640625 C 4.925781 -10.648438 5.25 -10.65625 5.625 -10.65625 C 8.25 -10.65625 9.5625 -9.597656 9.5625 -7.484375 C 9.5625 -6.753906 9.410156 -6.097656 9.109375 -5.515625 C 8.816406 -4.941406 8.382812 -4.484375 7.8125 -4.140625 C 7.25 -3.804688 6.566406 -3.640625 5.765625 -3.640625 C 5.316406 -3.640625 4.957031 -3.691406 4.6875 -3.796875 C 4.664062 -3.972656 4.65625 -4.09375 4.65625 -4.15625 C 4.65625 -4.382812 4.691406 -4.578125 4.765625 -4.734375 C 4.929688 -4.691406 5.117188 -4.671875 5.328125 -4.671875 Z M 5.328125 -4.671875 "/></g></g></g><g fill="rgb(0%, 0%, 0%)" fill-opacity="1"><g transform="translate(42.787876, 22.036174)"><g><path d="M 7.046875 -1.796875 C 7.148438 -1.734375 7.238281 -1.617188 7.3125 -1.453125 C 7.394531 -1.296875 7.441406 -1.132812 7.453125 -0.96875 C 7.054688 -0.59375 6.601562 -0.3125 6.09375 -0.125 C 5.59375 0.0507812 5.015625 0.140625 4.359375 0.140625 C 3.078125 0.140625 2.117188 -0.195312 1.484375 -0.875 C 0.847656 -1.5625 0.53125 -2.453125 0.53125 -3.546875 C 0.53125 -4.296875 0.679688 -4.953125 0.984375 -5.515625 C 1.296875 -6.085938 1.726562 -6.535156 2.28125 -6.859375 C 2.832031 -7.179688 3.476562 -7.34375 4.21875 -7.34375 C 5.289062 -7.34375 6.097656 -7.039062 6.640625 -6.4375 C 7.179688 -5.832031 7.472656 -5.015625 7.515625 -3.984375 C 7.453125 -3.671875 7.320312 -3.414062 7.125 -3.21875 C 5.320312 -3.21875 3.921875 -3.191406 2.921875 -3.140625 C 3.015625 -2.492188 3.234375 -1.984375 3.578125 -1.609375 C 3.929688 -1.234375 4.425781 -1.046875 5.0625 -1.046875 C 5.425781 -1.046875 5.785156 -1.113281 6.140625 -1.25 C 6.503906 -1.382812 6.804688 -1.566406 7.046875 -1.796875 Z M 4.171875 -6.359375 C 3.785156 -6.359375 3.472656 -6.171875 3.234375 -5.796875 C 3.003906 -5.429688 2.878906 -4.882812 2.859375 -4.15625 L 5.359375 -4.15625 C 5.359375 -4.851562 5.253906 -5.394531 5.046875 -5.78125 C 4.847656 -6.164062 4.554688 -6.359375 4.171875 -6.359375 Z M 4.171875 -6.359375 "/></g></g></g><g fill="rgb(0%, 0%, 0%)" fill-opacity="1"><g transform="translate(50.848162, 22.036174)"><g><path d="M 7.25 -6.859375 C 7.15625 -6.242188 7.109375 -5.625 7.109375 -5 C 7.109375 -4.789062 7.113281 -4.640625 7.125 -4.546875 C 6.820312 -4.429688 6.375 -4.375 5.78125 -4.375 C 5.769531 -4.769531 5.707031 -5.050781 5.59375 -5.21875 C 5.476562 -5.382812 5.316406 -5.46875 5.109375 -5.46875 C 4.953125 -5.46875 4.785156 -5.375 4.609375 -5.1875 C 4.429688 -5.007812 4.285156 -4.769531 4.171875 -4.46875 C 4.054688 -4.164062 4 -3.847656 4 -3.515625 L 4 -2.75 C 4 -2.289062 4.046875 -1.929688 4.140625 -1.671875 C 4.242188 -1.421875 4.40625 -1.238281 4.625 -1.125 C 4.84375 -1.019531 5.15625 -0.953125 5.5625 -0.921875 C 5.632812 -0.710938 5.671875 -0.390625 5.671875 0.046875 C 5.117188 0.015625 4.300781 0 3.21875 0 C 2.007812 0 1.113281 0.015625 0.53125 0.046875 C 0.53125 -0.367188 0.5625 -0.691406 0.625 -0.921875 C 0.914062 -0.941406 1.132812 -0.992188 1.28125 -1.078125 C 1.4375 -1.171875 1.546875 -1.328125 1.609375 -1.546875 C 1.671875 -1.765625 1.703125 -2.085938 1.703125 -2.515625 L 1.703125 -4.625 C 1.703125 -4.945312 1.675781 -5.191406 1.625 -5.359375 C 1.570312 -5.523438 1.460938 -5.648438 1.296875 -5.734375 C 1.140625 -5.816406 0.890625 -5.867188 0.546875 -5.890625 C 0.546875 -6.296875 0.609375 -6.609375 0.734375 -6.828125 C 1.296875 -6.835938 1.835938 -6.890625 2.359375 -6.984375 C 2.878906 -7.085938 3.269531 -7.207031 3.53125 -7.34375 C 3.84375 -7.226562 4 -6.9375 4 -6.46875 C 4 -6.257812 3.972656 -6.023438 3.921875 -5.765625 C 3.867188 -5.515625 3.804688 -5.25 3.734375 -4.96875 C 3.910156 -5.476562 4.046875 -5.804688 4.140625 -5.953125 C 4.378906 -6.335938 4.664062 -6.644531 5 -6.875 C 5.34375 -7.113281 5.710938 -7.234375 6.109375 -7.234375 C 6.546875 -7.234375 6.925781 -7.109375 7.25 -6.859375 Z M 7.25 -6.859375 "/></g></g></g><g fill="rgb(0%, 0%, 0%)" fill-opacity="1"><g transform="translate(58.358524, 22.036174)"><g><path d="M 6.203125 -5.171875 C 6.066406 -5.085938 5.890625 -5.019531 5.671875 -4.96875 C 5.453125 -4.914062 5.226562 -4.890625 5 -4.890625 C 4.945312 -5.316406 4.796875 -5.671875 4.546875 -5.953125 C 4.296875 -6.234375 3.945312 -6.375 3.5 -6.375 C 3.257812 -6.375 3.066406 -6.3125 2.921875 -6.1875 C 2.785156 -6.070312 2.71875 -5.914062 2.71875 -5.71875 C 2.71875 -5.550781 2.753906 -5.410156 2.828125 -5.296875 C 2.898438 -5.179688 3.054688 -5.050781 3.296875 -4.90625 C 3.546875 -4.769531 3.925781 -4.601562 4.4375 -4.40625 C 5.039062 -4.164062 5.503906 -3.9375 5.828125 -3.71875 C 6.160156 -3.5 6.398438 -3.257812 6.546875 -3 C 6.691406 -2.75 6.765625 -2.445312 6.765625 -2.09375 C 6.765625 -1.382812 6.46875 -0.832031 5.875 -0.4375 C 5.28125 -0.0507812 4.46875 0.140625 3.4375 0.140625 C 2.820312 0.140625 2.300781 0.09375 1.875 0 C 1.445312 -0.0820312 1.019531 -0.21875 0.59375 -0.40625 C 0.632812 -0.664062 0.65625 -1.003906 0.65625 -1.421875 C 0.65625 -1.796875 0.640625 -2.109375 0.609375 -2.359375 C 0.753906 -2.441406 0.941406 -2.503906 1.171875 -2.546875 C 1.410156 -2.597656 1.644531 -2.625 1.875 -2.625 C 1.925781 -2.0625 2.085938 -1.628906 2.359375 -1.328125 C 2.628906 -1.023438 2.976562 -0.875 3.40625 -0.875 C 3.707031 -0.875 3.953125 -0.941406 4.140625 -1.078125 C 4.335938 -1.222656 4.4375 -1.414062 4.4375 -1.65625 C 4.4375 -1.90625 4.332031 -2.109375 4.125 -2.265625 C 3.925781 -2.429688 3.523438 -2.632812 2.921875 -2.875 C 2.378906 -3.082031 1.945312 -3.285156 1.625 -3.484375 C 1.3125 -3.679688 1.070312 -3.925781 0.90625 -4.21875 C 0.738281 -4.507812 0.65625 -4.875 0.65625 -5.3125 C 0.65625 -5.96875 0.9375 -6.46875 1.5 -6.8125 C 2.070312 -7.164062 2.773438 -7.34375 3.609375 -7.34375 C 4.160156 -7.34375 4.632812 -7.300781 5.03125 -7.21875 C 5.425781 -7.144531 5.800781 -7.019531 6.15625 -6.84375 C 6.144531 -6.707031 6.140625 -6.488281 6.140625 -6.1875 C 6.140625 -5.800781 6.160156 -5.460938 6.203125 -5.171875 Z M 6.203125 -5.171875 "/></g></g></g><g fill="rgb(0%, 0%, 0%)" fill-opacity="1"><g transform="translate(65.648917, 22.036174)"><g><path d="M 4.46875 0.140625 C 3.21875 0.140625 2.25 -0.1875 1.5625 -0.84375 C 0.875 -1.5 0.53125 -2.390625 0.53125 -3.515625 C 0.53125 -4.304688 0.703125 -4.988281 1.046875 -5.5625 C 1.398438 -6.132812 1.878906 -6.570312 2.484375 -6.875 C 3.085938 -7.1875 3.773438 -7.34375 4.546875 -7.34375 C 5.804688 -7.34375 6.773438 -7.003906 7.453125 -6.328125 C 8.140625 -5.660156 8.484375 -4.769531 8.484375 -3.65625 C 8.484375 -2.894531 8.316406 -2.222656 7.984375 -1.640625 C 7.660156 -1.066406 7.191406 -0.625 6.578125 -0.3125 C 5.972656 -0.0078125 5.269531 0.140625 4.46875 0.140625 Z M 4.6875 -0.859375 C 5.144531 -0.859375 5.5 -1.082031 5.75 -1.53125 C 6 -1.988281 6.125 -2.578125 6.125 -3.296875 C 6.125 -3.941406 6.039062 -4.492188 5.875 -4.953125 C 5.71875 -5.421875 5.503906 -5.773438 5.234375 -6.015625 C 4.960938 -6.253906 4.664062 -6.375 4.34375 -6.375 C 3.875 -6.375 3.515625 -6.15625 3.265625 -5.71875 C 3.023438 -5.28125 2.90625 -4.707031 2.90625 -4 C 2.90625 -3.050781 3.0625 -2.289062 3.375 -1.71875 C 3.6875 -1.144531 4.125 -0.859375 4.6875 -0.859375 Z M 4.6875 -0.859375 "/></g></g></g><g fill="rgb(0%, 0%, 0%)" fill-opacity="1"><g transform="translate(74.667642, 22.036174)"><g><path d="M 9.78125 -0.921875 C 9.863281 -0.722656 9.90625 -0.398438 9.90625 0.046875 C 8.988281 0.015625 8.332031 0 7.9375 0 C 6.914062 0 6.160156 0.015625 5.671875 0.046875 C 5.671875 -0.378906 5.710938 -0.703125 5.796875 -0.921875 C 6.097656 -0.921875 6.320312 -1.03125 6.46875 -1.25 C 6.625 -1.476562 6.703125 -1.863281 6.703125 -2.40625 L 6.703125 -4.0625 C 6.703125 -4.695312 6.601562 -5.144531 6.40625 -5.40625 C 6.207031 -5.675781 5.910156 -5.8125 5.515625 -5.8125 C 5.097656 -5.8125 4.738281 -5.585938 4.4375 -5.140625 C 4.144531 -4.703125 4 -4.085938 4 -3.296875 L 4 -2.296875 C 4 -1.773438 4.066406 -1.414062 4.203125 -1.21875 C 4.335938 -1.019531 4.566406 -0.921875 4.890625 -0.921875 C 4.972656 -0.691406 5.015625 -0.367188 5.015625 0.046875 C 4.566406 0.015625 3.84375 0 2.84375 0 C 1.769531 0 1 0.015625 0.53125 0.046875 C 0.53125 -0.398438 0.570312 -0.722656 0.65625 -0.921875 C 1.0625 -0.921875 1.335938 -1.015625 1.484375 -1.203125 C 1.628906 -1.398438 1.703125 -1.765625 1.703125 -2.296875 L 1.703125 -4.625 C 1.703125 -4.945312 1.675781 -5.191406 1.625 -5.359375 C 1.570312 -5.523438 1.460938 -5.648438 1.296875 -5.734375 C 1.140625 -5.816406 0.890625 -5.867188 0.546875 -5.890625 C 0.546875 -6.296875 0.609375 -6.609375 0.734375 -6.828125 C 1.296875 -6.835938 1.835938 -6.890625 2.359375 -6.984375 C 2.878906 -7.085938 3.269531 -7.207031 3.53125 -7.34375 C 3.84375 -7.226562 4 -6.9375 4 -6.46875 C 4 -6.1875 3.941406 -5.875 3.828125 -5.53125 C 3.847656 -5.5625 3.898438 -5.660156 3.984375 -5.828125 C 4.066406 -6.003906 4.164062 -6.160156 4.28125 -6.296875 C 4.53125 -6.578125 4.84375 -6.804688 5.21875 -6.984375 C 5.59375 -7.171875 6.007812 -7.265625 6.46875 -7.265625 C 7.195312 -7.265625 7.796875 -7.054688 8.265625 -6.640625 C 8.742188 -6.222656 8.984375 -5.578125 8.984375 -4.703125 L 8.984375 -2.296875 C 8.984375 -1.785156 9.039062 -1.425781 9.15625 -1.21875 C 9.28125 -1.019531 9.488281 -0.921875 9.78125 -0.921875 Z M 9.78125 -0.921875 "/></g></g></g><g fill="rgb(0%, 0%, 0%)" fill-opacity="1"><g transform="translate(85.084741, 22.036174)"><g><path d="M 8.203125 -1.390625 C 8.210938 -1.316406 8.21875 -1.210938 8.21875 -1.078125 C 8.21875 -0.828125 8.171875 -0.59375 8.078125 -0.375 C 7.222656 -0.34375 6.441406 -0.171875 5.734375 0.140625 C 5.554688 0.0664062 5.425781 -0.0351562 5.34375 -0.171875 C 5.269531 -0.316406 5.234375 -0.515625 5.234375 -0.765625 C 5.234375 -0.867188 5.253906 -1.070312 5.296875 -1.375 C 5.128906 -0.976562 4.910156 -0.671875 4.640625 -0.453125 C 4.203125 -0.078125 3.585938 0.109375 2.796875 0.109375 C 2.085938 0.109375 1.535156 -0.0390625 1.140625 -0.34375 C 0.753906 -0.644531 0.5625 -1.082031 0.5625 -1.65625 C 0.5625 -2.539062 0.976562 -3.175781 1.8125 -3.5625 C 2.65625 -3.945312 3.71875 -4.226562 5 -4.40625 C 5 -4.863281 4.972656 -5.207031 4.921875 -5.4375 C 4.878906 -5.675781 4.789062 -5.875 4.65625 -6.03125 C 4.425781 -6.289062 4.128906 -6.421875 3.765625 -6.421875 C 3.367188 -6.421875 3.070312 -6.253906 2.875 -5.921875 C 2.6875 -5.585938 2.570312 -5.171875 2.53125 -4.671875 C 2.226562 -4.671875 1.972656 -4.679688 1.765625 -4.703125 C 1.566406 -4.722656 1.378906 -4.765625 1.203125 -4.828125 C 1.222656 -5.097656 1.234375 -5.316406 1.234375 -5.484375 C 1.234375 -5.921875 1.191406 -6.332031 1.109375 -6.71875 C 1.566406 -6.914062 2.078125 -7.070312 2.640625 -7.1875 C 3.210938 -7.300781 3.757812 -7.359375 4.28125 -7.359375 C 5.34375 -7.359375 6.117188 -7.117188 6.609375 -6.640625 C 6.835938 -6.398438 7.007812 -6.078125 7.125 -5.671875 C 7.238281 -5.273438 7.296875 -4.726562 7.296875 -4.03125 L 7.296875 -2.671875 C 7.296875 -2.316406 7.316406 -2.050781 7.359375 -1.875 C 7.398438 -1.707031 7.484375 -1.585938 7.609375 -1.515625 C 7.734375 -1.441406 7.929688 -1.398438 8.203125 -1.390625 Z M 5 -3.546875 C 4.28125 -3.421875 3.742188 -3.253906 3.390625 -3.046875 C 3.035156 -2.835938 2.859375 -2.515625 2.859375 -2.078125 C 2.859375 -1.796875 2.925781 -1.582031 3.0625 -1.4375 C 3.207031 -1.289062 3.382812 -1.21875 3.59375 -1.21875 C 3.832031 -1.21875 4.054688 -1.289062 4.265625 -1.4375 C 4.484375 -1.59375 4.660156 -1.8125 4.796875 -2.09375 C 4.929688 -2.382812 5 -2.734375 5 -3.140625 Z M 5 -3.546875 "/></g></g></g><g fill="rgb(0%, 0%, 0%)" fill-opacity="1"><g transform="translate(93.710664, 22.036174)"><g><path d="M 0.421875 0.046875 C 0.421875 -0.367188 0.457031 -0.691406 0.53125 -0.921875 C 0.945312 -0.941406 1.226562 -1.046875 1.375 -1.234375 C 1.519531 -1.421875 1.59375 -1.773438 1.59375 -2.296875 L 1.59375 -8.8125 C 1.59375 -9.164062 1.507812 -9.414062 1.34375 -9.5625 C 1.175781 -9.71875 0.867188 -9.804688 0.421875 -9.828125 C 0.421875 -10.222656 0.476562 -10.53125 0.59375 -10.75 C 1.113281 -10.75 1.65625 -10.800781 2.21875 -10.90625 C 2.78125 -11.019531 3.175781 -11.140625 3.40625 -11.265625 C 3.71875 -11.140625 3.875 -10.863281 3.875 -10.4375 L 3.875 -2.296875 C 3.875 -1.773438 3.941406 -1.421875 4.078125 -1.234375 C 4.222656 -1.046875 4.488281 -0.941406 4.875 -0.921875 C 4.9375 -0.722656 4.96875 -0.398438 4.96875 0.046875 C 4.519531 0.015625 3.765625 0 2.703125 0 C 1.617188 0 0.859375 0.015625 0.421875 0.046875 Z M 0.421875 0.046875 "/></g></g></g><g fill="rgb(0%, 0%, 0%)" fill-opacity="1"><g transform="translate(99.099903, 22.036174)"><g><path d="M 2.65625 -8.546875 C 2.269531 -8.546875 1.957031 -8.644531 1.71875 -8.84375 C 1.476562 -9.050781 1.359375 -9.328125 1.359375 -9.671875 C 1.359375 -10.035156 1.484375 -10.320312 1.734375 -10.53125 C 1.992188 -10.75 2.320312 -10.859375 2.71875 -10.859375 C 3.144531 -10.859375 3.476562 -10.753906 3.71875 -10.546875 C 3.957031 -10.335938 4.078125 -10.050781 4.078125 -9.6875 C 4.078125 -9.363281 3.945312 -9.09375 3.6875 -8.875 C 3.425781 -8.65625 3.082031 -8.546875 2.65625 -8.546875 Z M 0.53125 0.046875 C 0.53125 -0.367188 0.566406 -0.691406 0.640625 -0.921875 C 1.054688 -0.941406 1.335938 -1.046875 1.484375 -1.234375 C 1.628906 -1.421875 1.703125 -1.773438 1.703125 -2.296875 L 1.703125 -4.796875 C 1.703125 -5.179688 1.625 -5.453125 1.46875 -5.609375 C 1.3125 -5.773438 1 -5.867188 0.53125 -5.890625 C 0.53125 -6.285156 0.585938 -6.597656 0.703125 -6.828125 C 1.222656 -6.828125 1.765625 -6.878906 2.328125 -6.984375 C 2.890625 -7.097656 3.289062 -7.21875 3.53125 -7.34375 C 3.84375 -7.21875 4 -6.9375 4 -6.5 L 4 -2.296875 C 4 -1.773438 4.066406 -1.421875 4.203125 -1.234375 C 4.335938 -1.046875 4.597656 -0.941406 4.984375 -0.921875 C 5.046875 -0.722656 5.078125 -0.398438 5.078125 0.046875 C 4.628906 0.015625 3.875 0 2.8125 0 C 1.726562 0 0.96875 0.015625 0.53125 0.046875 Z M 0.53125 0.046875 "/></g></g></g><g fill="rgb(0%, 0%, 0%)" fill-opacity="1"><g transform="translate(104.693399, 22.036174)"><g><path d="M 7.40625 -2.625 C 7.40625 -1.582031 7.445312 -0.8125 7.53125 -0.3125 C 7.4375 -0.0820312 7.226562 0.03125 6.90625 0.03125 C 6.382812 0.03125 5.972656 0.0234375 5.671875 0.015625 L 3.890625 0 C 2.722656 0 1.757812 0.0078125 1 0.03125 C 0.914062 -0.0820312 0.84375 -0.222656 0.78125 -0.390625 C 0.726562 -0.554688 0.703125 -0.722656 0.703125 -0.890625 C 1.253906 -1.617188 1.894531 -2.503906 2.625 -3.546875 C 3.363281 -4.597656 3.984375 -5.492188 4.484375 -6.234375 L 3.5 -6.234375 C 3.1875 -6.234375 2.941406 -6.1875 2.765625 -6.09375 C 2.597656 -6.007812 2.460938 -5.859375 2.359375 -5.640625 C 2.265625 -5.421875 2.175781 -5.09375 2.09375 -4.65625 C 1.53125 -4.632812 1.097656 -4.695312 0.796875 -4.84375 C 0.890625 -5.550781 0.9375 -6.351562 0.9375 -7.25 C 1.59375 -7.21875 2.644531 -7.203125 4.09375 -7.203125 C 5.394531 -7.203125 6.378906 -7.21875 7.046875 -7.25 C 7.117188 -7.15625 7.171875 -7.03125 7.203125 -6.875 C 7.242188 -6.71875 7.265625 -6.554688 7.265625 -6.390625 C 6.796875 -5.640625 6.210938 -4.765625 5.515625 -3.765625 C 4.828125 -2.765625 4.15625 -1.832031 3.5 -0.96875 L 4.8125 -0.96875 C 5.164062 -0.96875 5.429688 -1.015625 5.609375 -1.109375 C 5.785156 -1.210938 5.914062 -1.390625 6 -1.640625 C 6.082031 -1.898438 6.140625 -2.269531 6.171875 -2.75 C 6.578125 -2.78125 6.988281 -2.738281 7.40625 -2.625 Z M 7.40625 -2.625 "/></g></g></g><g fill="rgb(0%, 0%, 0%)" fill-opacity="1"><g transform="translate(112.706552, 22.036174)"><g><path d="M 7.046875 -1.796875 C 7.148438 -1.734375 7.238281 -1.617188 7.3125 -1.453125 C 7.394531 -1.296875 7.441406 -1.132812 7.453125 -0.96875 C 7.054688 -0.59375 6.601562 -0.3125 6.09375 -0.125 C 5.59375 0.0507812 5.015625 0.140625 4.359375 0.140625 C 3.078125 0.140625 2.117188 -0.195312 1.484375 -0.875 C 0.847656 -1.5625 0.53125 -2.453125 0.53125 -3.546875 C 0.53125 -4.296875 0.679688 -4.953125 0.984375 -5.515625 C 1.296875 -6.085938 1.726562 -6.535156 2.28125 -6.859375 C 2.832031 -7.179688 3.476562 -7.34375 4.21875 -7.34375 C 5.289062 -7.34375 6.097656 -7.039062 6.640625 -6.4375 C 7.179688 -5.832031 7.472656 -5.015625 7.515625 -3.984375 C 7.453125 -3.671875 7.320312 -3.414062 7.125 -3.21875 C 5.320312 -3.21875 3.921875 -3.191406 2.921875 -3.140625 C 3.015625 -2.492188 3.234375 -1.984375 3.578125 -1.609375 C 3.929688 -1.234375 4.425781 -1.046875 5.0625 -1.046875 C 5.425781 -1.046875 5.785156 -1.113281 6.140625 -1.25 C 6.503906 -1.382812 6.804688 -1.566406 7.046875 -1.796875 Z M 4.171875 -6.359375 C 3.785156 -6.359375 3.472656 -6.171875 3.234375 -5.796875 C 3.003906 -5.429688 2.878906 -4.882812 2.859375 -4.15625 L 5.359375 -4.15625 C 5.359375 -4.851562 5.253906 -5.394531 5.046875 -5.78125 C 4.847656 -6.164062 4.554688 -6.359375 4.171875 -6.359375 Z M 4.171875 -6.359375 "/></g></g></g><g fill="rgb(0%, 0%, 0%)" fill-opacity="1"><g transform="translate(120.766839, 22.036174)"><g><path d="M 9.234375 -1.140625 C 9.234375 -0.847656 9.175781 -0.59375 9.0625 -0.375 C 8.664062 -0.351562 8.257812 -0.296875 7.84375 -0.203125 C 7.425781 -0.117188 7.046875 -0.00390625 6.703125 0.140625 C 6.515625 0.0664062 6.378906 -0.03125 6.296875 -0.15625 C 6.222656 -0.289062 6.1875 -0.488281 6.1875 -0.75 C 6.1875 -0.976562 6.21875 -1.226562 6.28125 -1.5 C 6.113281 -1.175781 5.921875 -0.914062 5.703125 -0.71875 C 5.515625 -0.5 5.234375 -0.300781 4.859375 -0.125 C 4.484375 0.0507812 4.070312 0.140625 3.625 0.140625 C 2.675781 0.140625 1.921875 -0.132812 1.359375 -0.6875 C 0.804688 -1.238281 0.53125 -2.066406 0.53125 -3.171875 C 0.53125 -3.972656 0.710938 -4.6875 1.078125 -5.3125 C 1.441406 -5.945312 1.945312 -6.441406 2.59375 -6.796875 C 3.25 -7.160156 4.003906 -7.34375 4.859375 -7.34375 C 5.253906 -7.34375 5.628906 -7.289062 5.984375 -7.1875 L 5.984375 -8.71875 C 5.984375 -9.113281 5.910156 -9.390625 5.765625 -9.546875 C 5.617188 -9.710938 5.304688 -9.804688 4.828125 -9.828125 C 4.828125 -10.222656 4.882812 -10.53125 5 -10.75 C 5.519531 -10.75 6.0625 -10.800781 6.625 -10.90625 C 7.1875 -11.007812 7.585938 -11.128906 7.828125 -11.265625 C 8.128906 -11.140625 8.28125 -10.863281 8.28125 -10.4375 L 8.28125 -2.65625 C 8.28125 -2.300781 8.300781 -2.035156 8.34375 -1.859375 C 8.382812 -1.691406 8.46875 -1.570312 8.59375 -1.5 C 8.726562 -1.4375 8.9375 -1.398438 9.21875 -1.390625 Z M 4.375 -1.140625 C 4.820312 -1.140625 5.203125 -1.359375 5.515625 -1.796875 C 5.828125 -2.234375 5.984375 -2.898438 5.984375 -3.796875 L 5.984375 -5.859375 C 5.816406 -6.035156 5.640625 -6.164062 5.453125 -6.25 C 5.273438 -6.34375 5.066406 -6.390625 4.828125 -6.390625 C 4.328125 -6.390625 3.878906 -6.175781 3.484375 -5.75 C 3.097656 -5.332031 2.90625 -4.585938 2.90625 -3.515625 C 2.90625 -2.796875 3.035156 -2.21875 3.296875 -1.78125 C 3.566406 -1.351562 3.925781 -1.140625 4.375 -1.140625 Z M 4.375 -1.140625 "/></g></g></g><g fill="rgb(0%, 0%, 0%)" fill-opacity="1"><g transform="translate(130.382622, 22.036174)"><g/></g></g><g fill="rgb(0%, 0%, 0%)" fill-opacity="1"><g transform="translate(133.525039, 22.036174)"><g><path d="M 9.71875 -10.671875 C 9.695312 -9.859375 9.78125 -8.929688 9.96875 -7.890625 C 9.65625 -7.753906 9.234375 -7.6875 8.703125 -7.6875 C 8.617188 -8.375 8.441406 -8.875 8.171875 -9.1875 C 7.898438 -9.507812 7.488281 -9.671875 6.9375 -9.671875 L 6.375 -9.671875 L 6.375 -2.515625 C 6.375 -2.078125 6.410156 -1.75 6.484375 -1.53125 C 6.566406 -1.320312 6.703125 -1.171875 6.890625 -1.078125 C 7.078125 -0.992188 7.375 -0.941406 7.78125 -0.921875 C 7.863281 -0.722656 7.90625 -0.398438 7.90625 0.046875 C 7.300781 0.015625 6.429688 0 5.296875 0 C 3.972656 0 2.992188 0.015625 2.359375 0.046875 C 2.359375 -0.316406 2.40625 -0.640625 2.5 -0.921875 C 2.90625 -0.941406 3.207031 -0.992188 3.40625 -1.078125 C 3.613281 -1.171875 3.757812 -1.328125 3.84375 -1.546875 C 3.9375 -1.765625 3.984375 -2.085938 3.984375 -2.515625 L 3.984375 -9.671875 L 3.609375 -9.671875 C 2.992188 -9.671875 2.550781 -9.515625 2.28125 -9.203125 C 2.007812 -8.890625 1.796875 -8.382812 1.640625 -7.6875 C 1.066406 -7.6875 0.648438 -7.753906 0.390625 -7.890625 C 0.484375 -8.335938 0.5625 -8.8125 0.625 -9.3125 C 0.6875 -9.820312 0.71875 -10.273438 0.71875 -10.671875 C 1.476562 -10.640625 2.984375 -10.625 5.234375 -10.625 C 7.109375 -10.625 8.601562 -10.640625 9.71875 -10.671875 Z M 9.71875 -10.671875 "/></g></g></g><g fill="rgb(0%, 0%, 0%)" fill-opacity="1"><g transform="translate(143.879281, 22.036174)"><g><path d="M 4.46875 0.140625 C 3.21875 0.140625 2.25 -0.1875 1.5625 -0.84375 C 0.875 -1.5 0.53125 -2.390625 0.53125 -3.515625 C 0.53125 -4.304688 0.703125 -4.988281 1.046875 -5.5625 C 1.398438 -6.132812 1.878906 -6.570312 2.484375 -6.875 C 3.085938 -7.1875 3.773438 -7.34375 4.546875 -7.34375 C 5.804688 -7.34375 6.773438 -7.003906 7.453125 -6.328125 C 8.140625 -5.660156 8.484375 -4.769531 8.484375 -3.65625 C 8.484375 -2.894531 8.316406 -2.222656 7.984375 -1.640625 C 7.660156 -1.066406 7.191406 -0.625 6.578125 -0.3125 C 5.972656 -0.0078125 5.269531 0.140625 4.46875 0.140625 Z M 4.6875 -0.859375 C 5.144531 -0.859375 5.5 -1.082031 5.75 -1.53125 C 6 -1.988281 6.125 -2.578125 6.125 -3.296875 C 6.125 -3.941406 6.039062 -4.492188 5.875 -4.953125 C 5.71875 -5.421875 5.503906 -5.773438 5.234375 -6.015625 C 4.960938 -6.253906 4.664062 -6.375 4.34375 -6.375 C 3.875 -6.375 3.515625 -6.15625 3.265625 -5.71875 C 3.023438 -5.28125 2.90625 -4.707031 2.90625 -4 C 2.90625 -3.050781 3.0625 -2.289062 3.375 -1.71875 C 3.6875 -1.144531 4.125 -0.859375 4.6875 -0.859375 Z M 4.6875 -0.859375 "/></g></g></g><g fill="rgb(0%, 0%, 0%)" fill-opacity="1"><g transform="translate(152.898006, 22.036174)"><g><path d="M 9.234375 -1.390625 C 9.242188 -1.316406 9.25 -1.210938 9.25 -1.078125 C 9.25 -0.828125 9.195312 -0.59375 9.09375 -0.375 C 8.21875 -0.34375 7.429688 -0.171875 6.734375 0.140625 C 6.546875 0.0664062 6.410156 -0.03125 6.328125 -0.15625 C 6.253906 -0.289062 6.21875 -0.488281 6.21875 -0.75 C 6.21875 -0.945312 6.242188 -1.195312 6.296875 -1.5 C 6.148438 -1.125 5.96875 -0.835938 5.75 -0.640625 C 5.226562 -0.148438 4.519531 0.09375 3.625 0.09375 C 2.832031 0.09375 2.234375 -0.125 1.828125 -0.5625 C 1.429688 -1.007812 1.234375 -1.753906 1.234375 -2.796875 L 1.234375 -4.625 C 1.234375 -4.945312 1.210938 -5.191406 1.171875 -5.359375 C 1.128906 -5.523438 1.035156 -5.648438 0.890625 -5.734375 C 0.753906 -5.816406 0.535156 -5.867188 0.234375 -5.890625 C 0.234375 -6.285156 0.289062 -6.597656 0.40625 -6.828125 C 0.945312 -6.835938 1.460938 -6.890625 1.953125 -6.984375 C 2.441406 -7.085938 2.816406 -7.207031 3.078125 -7.34375 C 3.378906 -7.226562 3.53125 -6.9375 3.53125 -6.46875 L 3.53125 -3.171875 C 3.53125 -2.472656 3.601562 -1.972656 3.75 -1.671875 C 3.90625 -1.378906 4.15625 -1.234375 4.5 -1.234375 C 4.9375 -1.234375 5.296875 -1.445312 5.578125 -1.875 C 5.867188 -2.300781 6.015625 -2.921875 6.015625 -3.734375 L 6.015625 -4.703125 C 6.015625 -5.023438 5.984375 -5.269531 5.921875 -5.4375 C 5.867188 -5.601562 5.757812 -5.726562 5.59375 -5.8125 C 5.4375 -5.90625 5.195312 -5.957031 4.875 -5.96875 C 4.875 -6.394531 4.929688 -6.707031 5.046875 -6.90625 C 5.640625 -6.914062 6.191406 -6.957031 6.703125 -7.03125 C 7.222656 -7.113281 7.609375 -7.21875 7.859375 -7.34375 C 8.160156 -7.226562 8.3125 -6.9375 8.3125 -6.46875 L 8.3125 -2.65625 C 8.3125 -2.300781 8.332031 -2.035156 8.375 -1.859375 C 8.414062 -1.691406 8.5 -1.570312 8.625 -1.5 C 8.75 -1.4375 8.953125 -1.398438 9.234375 -1.390625 Z M 9.234375 -1.390625 "/></g></g></g><g fill="rgb(0%, 0%, 0%)" fill-opacity="1"><g transform="translate(162.529501, 22.036174)"><g><path d="M 7.25 -6.859375 C 7.15625 -6.242188 7.109375 -5.625 7.109375 -5 C 7.109375 -4.789062 7.113281 -4.640625 7.125 -4.546875 C 6.820312 -4.429688 6.375 -4.375 5.78125 -4.375 C 5.769531 -4.769531 5.707031 -5.050781 5.59375 -5.21875 C 5.476562 -5.382812 5.316406 -5.46875 5.109375 -5.46875 C 4.953125 -5.46875 4.785156 -5.375 4.609375 -5.1875 C 4.429688 -5.007812 4.285156 -4.769531 4.171875 -4.46875 C 4.054688 -4.164062 4 -3.847656 4 -3.515625 L 4 -2.75 C 4 -2.289062 4.046875 -1.929688 4.140625 -1.671875 C 4.242188 -1.421875 4.40625 -1.238281 4.625 -1.125 C 4.84375 -1.019531 5.15625 -0.953125 5.5625 -0.921875 C 5.632812 -0.710938 5.671875 -0.390625 5.671875 0.046875 C 5.117188 0.015625 4.300781 0 3.21875 0 C 2.007812 0 1.113281 0.015625 0.53125 0.046875 C 0.53125 -0.367188 0.5625 -0.691406 0.625 -0.921875 C 0.914062 -0.941406 1.132812 -0.992188 1.28125 -1.078125 C 1.4375 -1.171875 1.546875 -1.328125 1.609375 -1.546875 C 1.671875 -1.765625 1.703125 -2.085938 1.703125 -2.515625 L 1.703125 -4.625 C 1.703125 -4.945312 1.675781 -5.191406 1.625 -5.359375 C 1.570312 -5.523438 1.460938 -5.648438 1.296875 -5.734375 C 1.140625 -5.816406 0.890625 -5.867188 0.546875 -5.890625 C 0.546875 -6.296875 0.609375 -6.609375 0.734375 -6.828125 C 1.296875 -6.835938 1.835938 -6.890625 2.359375 -6.984375 C 2.878906 -7.085938 3.269531 -7.207031 3.53125 -7.34375 C 3.84375 -7.226562 4 -6.9375 4 -6.46875 C 4 -6.257812 3.972656 -6.023438 3.921875 -5.765625 C 3.867188 -5.515625 3.804688 -5.25 3.734375 -4.96875 C 3.910156 -5.476562 4.046875 -5.804688 4.140625 -5.953125 C 4.378906 -6.335938 4.664062 -6.644531 5 -6.875 C 5.34375 -7.113281 5.710938 -7.234375 6.109375 -7.234375 C 6.546875 -7.234375 6.925781 -7.109375 7.25 -6.859375 Z M 7.25 -6.859375 "/></g></g></g><g fill="rgb(100%, 100%, 100%)" fill-opacity="1"><g transform="translate(170.033839, 22.036174)"><g><path d="M 2.65625 -8.546875 C 2.269531 -8.546875 1.957031 -8.644531 1.71875 -8.84375 C 1.476562 -9.050781 1.359375 -9.328125 1.359375 -9.671875 C 1.359375 -10.035156 1.484375 -10.320312 1.734375 -10.53125 C 1.992188 -10.75 2.320312 -10.859375 2.71875 -10.859375 C 3.144531 -10.859375 3.476562 -10.753906 3.71875 -10.546875 C 3.957031 -10.335938 4.078125 -10.050781 4.078125 -9.6875 C 4.078125 -9.363281 3.945312 -9.09375 3.6875 -8.875 C 3.425781 -8.65625 3.082031 -8.546875 2.65625 -8.546875 Z M 0.53125 0.046875 C 0.53125 -0.367188 0.566406 -0.691406 0.640625 -0.921875 C 1.054688 -0.941406 1.335938 -1.046875 1.484375 -1.234375 C 1.628906 -1.421875 1.703125 -1.773438 1.703125 -2.296875 L 1.703125 -4.796875 C 1.703125 -5.179688 1.625 -5.453125 1.46875 -5.609375 C 1.3125 -5.773438 1 -5.867188 0.53125 -5.890625 C 0.53125 -6.285156 0.585938 -6.597656 0.703125 -6.828125 C 1.222656 -6.828125 1.765625 -6.878906 2.328125 -6.984375 C 2.890625 -7.097656 3.289062 -7.21875 3.53125 -7.34375 C 3.84375 -7.21875 4 -6.9375 4 -6.5 L 4 -2.296875 C 4 -1.773438 4.066406 -1.421875 4.203125 -1.234375 C 4.335938 -1.046875 4.597656 -0.941406 4.984375 -0.921875 C 5.046875 -0.722656 5.078125 -0.398438 5.078125 0.046875 C 4.628906 0.015625 3.875 0 2.8125 0 C 1.726562 0 0.96875 0.015625 0.53125 0.046875 Z M 0.53125 0.046875 "/></g></g></g><g fill="rgb(0%, 0%, 0%)" fill-opacity="1"><g transform="translate(175.620832, 22.036174)"><g><path d="M 6.203125 -5.171875 C 6.066406 -5.085938 5.890625 -5.019531 5.671875 -4.96875 C 5.453125 -4.914062 5.226562 -4.890625 5 -4.890625 C 4.945312 -5.316406 4.796875 -5.671875 4.546875 -5.953125 C 4.296875 -6.234375 3.945312 -6.375 3.5 -6.375 C 3.257812 -6.375 3.066406 -6.3125 2.921875 -6.1875 C 2.785156 -6.070312 2.71875 -5.914062 2.71875 -5.71875 C 2.71875 -5.550781 2.753906 -5.410156 2.828125 -5.296875 C 2.898438 -5.179688 3.054688 -5.050781 3.296875 -4.90625 C 3.546875 -4.769531 3.925781 -4.601562 4.4375 -4.40625 C 5.039062 -4.164062 5.503906 -3.9375 5.828125 -3.71875 C 6.160156 -3.5 6.398438 -3.257812 6.546875 -3 C 6.691406 -2.75 6.765625 -2.445312 6.765625 -2.09375 C 6.765625 -1.382812 6.46875 -0.832031 5.875 -0.4375 C 5.28125 -0.0507812 4.46875 0.140625 3.4375 0.140625 C 2.820312 0.140625 2.300781 0.09375 1.875 0 C 1.445312 -0.0820312 1.019531 -0.21875 0.59375 -0.40625 C 0.632812 -0.664062 0.65625 -1.003906 0.65625 -1.421875 C 0.65625 -1.796875 0.640625 -2.109375 0.609375 -2.359375 C 0.753906 -2.441406 0.941406 -2.503906 1.171875 -2.546875 C 1.410156 -2.597656 1.644531 -2.625 1.875 -2.625 C 1.925781 -2.0625 2.085938 -1.628906 2.359375 -1.328125 C 2.628906 -1.023438 2.976562 -0.875 3.40625 -0.875 C 3.707031 -0.875 3.953125 -0.941406 4.140625 -1.078125 C 4.335938 -1.222656 4.4375 -1.414062 4.4375 -1.65625 C 4.4375 -1.90625 4.332031 -2.109375 4.125 -2.265625 C 3.925781 -2.429688 3.523438 -2.632812 2.921875 -2.875 C 2.378906 -3.082031 1.945312 -3.285156 1.625 -3.484375 C 1.3125 -3.679688 1.070312 -3.925781 0.90625 -4.21875 C 0.738281 -4.507812 0.65625 -4.875 0.65625 -5.3125 C 0.65625 -5.96875 0.9375 -6.46875 1.5 -6.8125 C 2.070312 -7.164062 2.773438 -7.34375 3.609375 -7.34375 C 4.160156 -7.34375 4.632812 -7.300781 5.03125 -7.21875 C 5.425781 -7.144531 5.800781 -7.019531 6.15625 -6.84375 C 6.144531 -6.707031 6.140625 -6.488281 6.140625 -6.1875 C 6.140625 -5.800781 6.160156 -5.460938 6.203125 -5.171875 Z M 6.203125 -5.171875 "/></g></g></g><g fill="rgb(0%, 0%, 0%)" fill-opacity="1"><g transform="translate(182.911226, 22.036174)"><g><path d="M 3.546875 0.140625 C 2.796875 0.140625 2.238281 -0.0507812 1.875 -0.4375 C 1.519531 -0.820312 1.34375 -1.460938 1.34375 -2.359375 L 1.34375 -5.84375 C 1.03125 -5.96875 0.644531 -6.035156 0.1875 -6.046875 C 0.1875 -6.441406 0.242188 -6.773438 0.359375 -7.046875 L 1.34375 -7.046875 L 1.34375 -8.96875 C 1.6875 -9.007812 2.03125 -9.101562 2.375 -9.25 C 2.726562 -9.40625 3.015625 -9.570312 3.234375 -9.75 C 3.390625 -9.6875 3.492188 -9.59375 3.546875 -9.46875 C 3.597656 -9.34375 3.625 -9.109375 3.625 -8.765625 L 3.625 -7.046875 L 5.5625 -7.046875 C 5.5625 -6.703125 5.507812 -6.363281 5.40625 -6.03125 C 4.707031 -6.007812 4.113281 -5.925781 3.625 -5.78125 L 3.625 -2.609375 C 3.625 -1.992188 3.6875 -1.566406 3.8125 -1.328125 C 3.945312 -1.097656 4.160156 -0.984375 4.453125 -0.984375 C 4.796875 -0.984375 5.113281 -1.070312 5.40625 -1.25 C 5.539062 -1.0625 5.617188 -0.800781 5.640625 -0.46875 C 5.429688 -0.289062 5.128906 -0.144531 4.734375 -0.03125 C 4.347656 0.0820312 3.953125 0.140625 3.546875 0.140625 Z M 3.546875 0.140625 "/></g></g></g><g fill="rgb(0%, 0%, 0%)" fill-opacity="1"><g transform="translate(188.85039, 22.036174)"><g/></g></g><g fill="rgb(0%, 0%, 0%)" fill-opacity="1"><g transform="translate(191.992806, 22.036174)"><g><path d="M 5.9375 0.140625 C 4.851562 0.140625 3.90625 -0.078125 3.09375 -0.515625 C 2.28125 -0.960938 1.648438 -1.601562 1.203125 -2.4375 C 0.765625 -3.28125 0.546875 -4.273438 0.546875 -5.421875 C 0.546875 -6.546875 0.785156 -7.507812 1.265625 -8.3125 C 1.742188 -9.125 2.398438 -9.734375 3.234375 -10.140625 C 4.078125 -10.554688 5.03125 -10.765625 6.09375 -10.765625 C 6.789062 -10.765625 7.460938 -10.691406 8.109375 -10.546875 C 8.753906 -10.398438 9.328125 -10.210938 9.828125 -9.984375 C 9.710938 -9.316406 9.65625 -8.503906 9.65625 -7.546875 C 9.363281 -7.421875 8.953125 -7.359375 8.421875 -7.359375 C 8.378906 -8.253906 8.160156 -8.882812 7.765625 -9.25 C 7.378906 -9.613281 6.828125 -9.796875 6.109375 -9.796875 C 5.429688 -9.796875 4.859375 -9.609375 4.390625 -9.234375 C 3.929688 -8.867188 3.59375 -8.382812 3.375 -7.78125 C 3.164062 -7.175781 3.0625 -6.507812 3.0625 -5.78125 C 3.0625 -4.851562 3.179688 -4.019531 3.421875 -3.28125 C 3.671875 -2.539062 4.03125 -1.957031 4.5 -1.53125 C 4.976562 -1.101562 5.539062 -0.890625 6.1875 -0.890625 C 6.632812 -0.890625 6.972656 -0.941406 7.203125 -1.046875 C 7.378906 -1.117188 7.507812 -1.234375 7.59375 -1.390625 C 7.675781 -1.546875 7.71875 -1.816406 7.71875 -2.203125 L 7.71875 -2.84375 C 7.71875 -3.238281 7.6875 -3.523438 7.625 -3.703125 C 7.570312 -3.890625 7.460938 -4.015625 7.296875 -4.078125 C 7.140625 -4.148438 6.875 -4.191406 6.5 -4.203125 C 6.425781 -4.429688 6.390625 -4.757812 6.390625 -5.1875 C 6.921875 -5.15625 7.609375 -5.140625 8.453125 -5.140625 C 9.171875 -5.140625 9.863281 -5.148438 10.53125 -5.171875 C 10.53125 -4.765625 10.5 -4.441406 10.4375 -4.203125 C 10.238281 -4.191406 10.09375 -4.15625 10 -4.09375 C 9.914062 -4.03125 9.859375 -3.914062 9.828125 -3.75 C 9.796875 -3.59375 9.78125 -3.335938 9.78125 -2.984375 L 9.78125 -2.46875 C 9.78125 -2.144531 9.796875 -1.882812 9.828125 -1.6875 C 9.867188 -1.5 9.9375 -1.289062 10.03125 -1.0625 C 9.539062 -0.695312 8.9375 -0.40625 8.21875 -0.1875 C 7.507812 0.03125 6.75 0.140625 5.9375 0.140625 Z M 5.9375 0.140625 "/></g></g></g><g fill="rgb(0%, 0%, 0%)" fill-opacity="1"><g transform="translate(203.195509, 22.036174)"><g><path d="M 9.234375 -1.390625 C 9.242188 -1.316406 9.25 -1.210938 9.25 -1.078125 C 9.25 -0.828125 9.195312 -0.59375 9.09375 -0.375 C 8.21875 -0.34375 7.429688 -0.171875 6.734375 0.140625 C 6.546875 0.0664062 6.410156 -0.03125 6.328125 -0.15625 C 6.253906 -0.289062 6.21875 -0.488281 6.21875 -0.75 C 6.21875 -0.945312 6.242188 -1.195312 6.296875 -1.5 C 6.148438 -1.125 5.96875 -0.835938 5.75 -0.640625 C 5.226562 -0.148438 4.519531 0.09375 3.625 0.09375 C 2.832031 0.09375 2.234375 -0.125 1.828125 -0.5625 C 1.429688 -1.007812 1.234375 -1.753906 1.234375 -2.796875 L 1.234375 -4.625 C 1.234375 -4.945312 1.210938 -5.191406 1.171875 -5.359375 C 1.128906 -5.523438 1.035156 -5.648438 0.890625 -5.734375 C 0.753906 -5.816406 0.535156 -5.867188 0.234375 -5.890625 C 0.234375 -6.285156 0.289062 -6.597656 0.40625 -6.828125 C 0.945312 -6.835938 1.460938 -6.890625 1.953125 -6.984375 C 2.441406 -7.085938 2.816406 -7.207031 3.078125 -7.34375 C 3.378906 -7.226562 3.53125 -6.9375 3.53125 -6.46875 L 3.53125 -3.171875 C 3.53125 -2.472656 3.601562 -1.972656 3.75 -1.671875 C 3.90625 -1.378906 4.15625 -1.234375 4.5 -1.234375 C 4.9375 -1.234375 5.296875 -1.445312 5.578125 -1.875 C 5.867188 -2.300781 6.015625 -2.921875 6.015625 -3.734375 L 6.015625 -4.703125 C 6.015625 -5.023438 5.984375 -5.269531 5.921875 -5.4375 C 5.867188 -5.601562 5.757812 -5.726562 5.59375 -5.8125 C 5.4375 -5.90625 5.195312 -5.957031 4.875 -5.96875 C 4.875 -6.394531 4.929688 -6.707031 5.046875 -6.90625 C 5.640625 -6.914062 6.191406 -6.957031 6.703125 -7.03125 C 7.222656 -7.113281 7.609375 -7.21875 7.859375 -7.34375 C 8.160156 -7.226562 8.3125 -6.9375 8.3125 -6.46875 L 8.3125 -2.65625 C 8.3125 -2.300781 8.332031 -2.035156 8.375 -1.859375 C 8.414062 -1.691406 8.5 -1.570312 8.625 -1.5 C 8.75 -1.4375 8.953125 -1.398438 9.234375 -1.390625 Z M 9.234375 -1.390625 "/></g></g></g><g fill="rgb(0%, 0%, 0%)" fill-opacity="1"><g transform="translate(212.827004, 22.036174)"><g><path d="M 2.65625 -8.546875 C 2.269531 -8.546875 1.957031 -8.644531 1.71875 -8.84375 C 1.476562 -9.050781 1.359375 -9.328125 1.359375 -9.671875 C 1.359375 -10.035156 1.484375 -10.320312 1.734375 -10.53125 C 1.992188 -10.75 2.320312 -10.859375 2.71875 -10.859375 C 3.144531 -10.859375 3.476562 -10.753906 3.71875 -10.546875 C 3.957031 -10.335938 4.078125 -10.050781 4.078125 -9.6875 C 4.078125 -9.363281 3.945312 -9.09375 3.6875 -8.875 C 3.425781 -8.65625 3.082031 -8.546875 2.65625 -8.546875 Z M 0.53125 0.046875 C 0.53125 -0.367188 0.566406 -0.691406 0.640625 -0.921875 C 1.054688 -0.941406 1.335938 -1.046875 1.484375 -1.234375 C 1.628906 -1.421875 1.703125 -1.773438 1.703125 -2.296875 L 1.703125 -4.796875 C 1.703125 -5.179688 1.625 -5.453125 1.46875 -5.609375 C 1.3125 -5.773438 1 -5.867188 0.53125 -5.890625 C 0.53125 -6.285156 0.585938 -6.597656 0.703125 -6.828125 C 1.222656 -6.828125 1.765625 -6.878906 2.328125 -6.984375 C 2.890625 -7.097656 3.289062 -7.21875 3.53125 -7.34375 C 3.84375 -7.21875 4 -6.9375 4 -6.5 L 4 -2.296875 C 4 -1.773438 4.066406 -1.421875 4.203125 -1.234375 C 4.335938 -1.046875 4.597656 -0.941406 4.984375 -0.921875 C 5.046875 -0.722656 5.078125 -0.398438 5.078125 0.046875 C 4.628906 0.015625 3.875 0 2.8125 0 C 1.726562 0 0.96875 0.015625 0.53125 0.046875 Z M 0.53125 0.046875 "/></g></g></g><g fill="rgb(0%, 0%, 0%)" fill-opacity="1"><g transform="translate(218.4205, 22.036174)"><g><path d="M 9.234375 -1.140625 C 9.234375 -0.847656 9.175781 -0.59375 9.0625 -0.375 C 8.664062 -0.351562 8.257812 -0.296875 7.84375 -0.203125 C 7.425781 -0.117188 7.046875 -0.00390625 6.703125 0.140625 C 6.515625 0.0664062 6.378906 -0.03125 6.296875 -0.15625 C 6.222656 -0.289062 6.1875 -0.488281 6.1875 -0.75 C 6.1875 -0.976562 6.21875 -1.226562 6.28125 -1.5 C 6.113281 -1.175781 5.921875 -0.914062 5.703125 -0.71875 C 5.515625 -0.5 5.234375 -0.300781 4.859375 -0.125 C 4.484375 0.0507812 4.070312 0.140625 3.625 0.140625 C 2.675781 0.140625 1.921875 -0.132812 1.359375 -0.6875 C 0.804688 -1.238281 0.53125 -2.066406 0.53125 -3.171875 C 0.53125 -3.972656 0.710938 -4.6875 1.078125 -5.3125 C 1.441406 -5.945312 1.945312 -6.441406 2.59375 -6.796875 C 3.25 -7.160156 4.003906 -7.34375 4.859375 -7.34375 C 5.253906 -7.34375 5.628906 -7.289062 5.984375 -7.1875 L 5.984375 -8.71875 C 5.984375 -9.113281 5.910156 -9.390625 5.765625 -9.546875 C 5.617188 -9.710938 5.304688 -9.804688 4.828125 -9.828125 C 4.828125 -10.222656 4.882812 -10.53125 5 -10.75 C 5.519531 -10.75 6.0625 -10.800781 6.625 -10.90625 C 7.1875 -11.007812 7.585938 -11.128906 7.828125 -11.265625 C 8.128906 -11.140625 8.28125 -10.863281 8.28125 -10.4375 L 8.28125 -2.65625 C 8.28125 -2.300781 8.300781 -2.035156 8.34375 -1.859375 C 8.382812 -1.691406 8.46875 -1.570312 8.59375 -1.5 C 8.726562 -1.4375 8.9375 -1.398438 9.21875 -1.390625 Z M 4.375 -1.140625 C 4.820312 -1.140625 5.203125 -1.359375 5.515625 -1.796875 C 5.828125 -2.234375 5.984375 -2.898438 5.984375 -3.796875 L 5.984375 -5.859375 C 5.816406 -6.035156 5.640625 -6.164062 5.453125 -6.25 C 5.273438 -6.34375 5.066406 -6.390625 4.828125 -6.390625 C 4.328125 -6.390625 3.878906 -6.175781 3.484375 -5.75 C 3.097656 -5.332031 2.90625 -4.585938 2.90625 -3.515625 C 2.90625 -2.796875 3.035156 -2.21875 3.296875 -1.78125 C 3.566406 -1.351562 3.925781 -1.140625 4.375 -1.140625 Z M 4.375 -1.140625 "/></g></g></g><g fill="rgb(0%, 0%, 0%)" fill-opacity="1"><g transform="translate(228.036283, 22.036174)"><g><path d="M 7.046875 -1.796875 C 7.148438 -1.734375 7.238281 -1.617188 7.3125 -1.453125 C 7.394531 -1.296875 7.441406 -1.132812 7.453125 -0.96875 C 7.054688 -0.59375 6.601562 -0.3125 6.09375 -0.125 C 5.59375 0.0507812 5.015625 0.140625 4.359375 0.140625 C 3.078125 0.140625 2.117188 -0.195312 1.484375 -0.875 C 0.847656 -1.5625 0.53125 -2.453125 0.53125 -3.546875 C 0.53125 -4.296875 0.679688 -4.953125 0.984375 -5.515625 C 1.296875 -6.085938 1.726562 -6.535156 2.28125 -6.859375 C 2.832031 -7.179688 3.476562 -7.34375 4.21875 -7.34375 C 5.289062 -7.34375 6.097656 -7.039062 6.640625 -6.4375 C 7.179688 -5.832031 7.472656 -5.015625 7.515625 -3.984375 C 7.453125 -3.671875 7.320312 -3.414062 7.125 -3.21875 C 5.320312 -3.21875 3.921875 -3.191406 2.921875 -3.140625 C 3.015625 -2.492188 3.234375 -1.984375 3.578125 -1.609375 C 3.929688 -1.234375 4.425781 -1.046875 5.0625 -1.046875 C 5.425781 -1.046875 5.785156 -1.113281 6.140625 -1.25 C 6.503906 -1.382812 6.804688 -1.566406 7.046875 -1.796875 Z M 4.171875 -6.359375 C 3.785156 -6.359375 3.472656 -6.171875 3.234375 -5.796875 C 3.003906 -5.429688 2.878906 -4.882812 2.859375 -4.15625 L 5.359375 -4.15625 C 5.359375 -4.851562 5.253906 -5.394531 5.046875 -5.78125 C 4.847656 -6.164062 4.554688 -6.359375 4.171875 -6.359375 Z M 4.171875 -6.359375 "/></g></g></g><g clip-path="url(#id3)"><path fill="rgb(32.939148%, 32.939148%, 32.939148%)" d="M 173.703125 20.4375 L 173.15625 21.929688 L 172.609375 20.4375 L 172.609375 12.386719 L 173.703125 12.386719 Z M 173.703125 20.4375 " fill-opacity="1" fill-rule="nonzero"/></g><g clip-path="url(#id4)"><path fill="rgb(100%, 34.118652%, 13.328552%)" d="M 175.34375 11.191406 C 175.34375 11.507812 175.289062 11.8125 175.175781 12.105469 C 175.066406 12.398438 174.90625 12.65625 174.703125 12.878906 C 174.496094 13.105469 174.261719 13.277344 173.992188 13.398438 C 173.722656 13.519531 173.445312 13.578125 173.15625 13.578125 C 172.863281 13.578125 172.585938 13.519531 172.316406 13.398438 C 172.046875 13.277344 171.8125 13.105469 171.605469 12.878906 C 171.402344 12.65625 171.242188 12.398438 171.132812 12.105469 C 171.019531 11.8125 170.964844 11.507812 170.964844 11.191406 C 170.964844 10.875 171.019531 10.570312 171.132812 10.28125 C 171.242188 9.988281 171.402344 9.730469 171.605469 9.503906 C 171.8125 9.28125 172.046875 9.109375 172.316406 8.988281 C 172.585938 8.867188 172.863281 8.808594 173.15625 8.808594 C 173.445312 8.808594 173.722656 8.867188 173.992188 8.988281 C 174.261719 9.109375 174.496094 9.28125 174.703125 9.503906 C 174.90625 9.730469 175.066406 9.988281 175.175781 10.28125 C 175.289062 10.570312 175.34375 10.875 175.34375 11.191406 Z M 175.34375 11.191406 " fill-opacity="1" fill-rule="nonzero"/></g><g clip-path="url(#id5)"><path stroke-linecap="round" transform="matrix(0.273649, 0, 0, 0.298263, 166.587163, 8.210188)" fill="none" stroke-linejoin="miter" d="M 18.995138 9.995281 C 18.995138 7.244978 21.236264 5.005445 24.005554 5.005445 " stroke="rgb(100%, 67.059326%, 56.858826%)" stroke-width="2" stroke-opacity="1" stroke-miterlimit="4"/></g></svg>